Shrek
 
http://www.postimg.com/54000/photo-53124.jpg

General

Format : Matroska
Format version : Version 2
File size : 800 MiB
Duration : 1h 30mn
Overall bit rate : 1 242 Kbps
Encoded date : UTC 2011-11-27 07:14:20
Writing application : mkvmerge v4.3.0 ('Escape from the Island') built on Sep 5 2010 10:30:51
Writing library : libebml v1.0.0 + libmatroska v1.0.0

Video
ID : 1
Format : AVC
Format/Info : Advanced Video Codec
Format profile : Main@L3.1
Format settings, CABAC : Yes
Format settings, ReFrames : 4 frames
Muxing mode : Header stripping
Codec ID : V_MPEG4/ISO/AVC
Duration : 1h 30mn
Bit rate : 1 100 Kbps
Width : 1 264 pixels
Height : 704 pixels
Display aspect ratio : 16:9
Frame rate : 23.976 fps
Color space : YUV
Chroma subsampling : 4:2:0
Bit depth : 8 bits
Scan type : Progressive
Bits/(Pixel*Frame) : 0.052
Stream size : 691 MiB (86%)
Title : Shrek 1 720p Dual Audio {Hindi English}~JAGJIT639~KHARAY-=KSRR=-

Audio #1
ID : 2
Format : MPEG Audio
Format version : Version 2
Format profile : Layer 3
Mode : Joint stereo
Muxing mode : Header stripping
Codec ID : A_MPEG/L3
Codec ID/Hint : MP3
Duration : 1h 30mn
Bit rate mode : Constant
Bit rate : 48.0 Kbps
Channel(s) : 2 channels
Sampling rate : 22.05 KHz
Compression mode : Lossy
Stream size : 30.9 MiB (4%)
Title : English Audio -=KSRR=-
Language : English

Audio #2
ID : 3
Format : MPEG Audio
Format version : Version 1
Format profile : Layer 3
Mode : Joint stereo
Muxing mode : Header stripping
Codec ID : A_MPEG/L3
Codec ID/Hint : MP3
Duration : 1h 30mn
Bit rate mode : Constant
Bit rate : 96.0 Kbps
Channel(s) : 2 channels
Sampling rate : 32.0 KHz
Compression mode : Lossy
Stream size : 61.8 MiB (8%)
Title : Hindi Audio -=KSRR=-
Writing library : LAME3.98r
Encoding settings : -m j -V 4 -q 2 -lowpass 15.1 -b 96
Language : Hindi

Screen Shots
 
http://www.postimg.com/54000/photo-53127.jpg 
http://www.postimg.com/54000/photo-53128.jpg 
http://www.postimg.com/54000/photo-53129.jpg


Shrek 2

eneral

Format : Matroska
Format version : Version 2
File size : 788 MiB
Duration : 1h 28mn
Overall bit rate : 1 244 Kbps
Encoded date : UTC 2011-11-27 02:29:10
Writing application : mkvmerge v4.3.0 ('Escape from the Island') built on Sep 5 2010 10:30:51
Writing library : libebml v1.0.0 + libmatroska v1.0.0

Video
ID : 1
Format : AVC
Format/Info : Advanced Video Codec
Format profile : Main@L3.1
Format settings, CABAC : Yes
Format settings, ReFrames : 4 frames
Muxing mode : Header stripping
Codec ID : V_MPEG4/ISO/AVC
Duration : 1h 28mn
Bit rate : 1 100 Kbps
Width : 1 264 pixels
Height : 704 pixels
Display aspect ratio : 16:9
Frame rate : 25.000 fps
Color space : YUV
Chroma subsampling : 4:2:0
Bit depth : 8 bits
Scan type : Progressive
Bits/(Pixel*Frame) : 0.049
Stream size : 681 MiB (86%)
Title : Shrek 2 720p Dual Audio {Hindi English}~JAGJIT639~KHARAY-=KSRR=-


Audio #1
ID : 2
Format : MPEG Audio
Format version : Version 2
Format profile : Layer 3
Mode : Joint stereo
Mode extension : MS Stereo
Muxing mode : Header stripping
Codec ID : A_MPEG/L3
Codec ID/Hint : MP3
Duration : 1h 28mn
Bit rate mode : Constant
Bit rate : 48.0 Kbps
Channel(s) : 2 channels
Sampling rate : 22.05 KHz
Compression mode : Lossy
Stream size : 30.4 MiB (4%)
Title : English Audio -=KSRR=-
Writing library : LAME3.98.4UUUUUULAME
Language : English

Audio #2
ID : 3
Format : MPEG Audio
Format version : Version 1
Format profile : Layer 3
Mode : Joint stereo
Mode extension : MS Stereo
Muxing mode : Header stripping
Codec ID : A_MPEG/L3
Codec ID/Hint : MP3
Duration : 1h 26mn
Bit rate mode : Constant
Bit rate : 96.0 Kbps
Channel(s) : 2 channels
Sampling rate : 32.0 KHz
Compression mode : Lossy
Delay relative to video : 24ms
Stream size : 59.4 MiB (8%)
Title : Hindi Audio -=KSRR=-
Writing library : LAME3.98r
Encoding settings : -m j -V 4 -q 2 -lowpass 15.1 -b 96
Language : Hindi

Screen
 
http://www.postimg.com/54000/photo-53104.jpg 
http://www.postimg.com/54000/photo-53105.jpg 
http://www.postimg.com/54000/photo-53108.jpg

Shrek 3

General
Format : Matroska
Format version : Version 2
File size : 822 MiB
Duration : 1h 32mn
Overall bit rate : 1 239 Kbps
Encoded date : UTC 2011-11-26 15:30:17
Writing application : mkvmerge v4.3.0 ('Escape from the Island') built on Sep 5 2010 10:30:51
Writing library : libebml v1.0.0 + libmatroska v1.0.0

Video
ID : 3
Format : AVC
Format/Info : Advanced Video Codec
Format profile : Main@L3.1
Format settings, CABAC : Yes
Format settings, ReFrames : 4 frames
Muxing mode : Header stripping
Codec ID : V_MPEG4/ISO/AVC
Duration : 1h 32mn
Bit rate : 1 100 Kbps
Width : 1 264 pixels
Height : 704 pixels
Display aspect ratio : 16:9
Frame rate : 23.976 fps
Color space : YUV
Chroma subsampling : 4:2:0
Bit depth : 8 bits
Scan type : Progressive
Bits/(Pixel*Frame) : 0.052
Stream size : 710 MiB (86%)
Title : Shrek 3 720p Brrip Dual Audio{Hindi- English}-=KSRR=-

Audio #1
ID : 1
Format : MPEG Audio
Format version : Version 2
Format profile : Layer 3
Mode : Joint stereo
Mode extension : MS Stereo
Muxing mode : Header stripping
Codec ID : A_MPEG/L3
Codec ID/Hint : MP3
Duration : 1h 32mn
Bit rate mode : Constant
Bit rate : 48.0 Kbps
Channel(s) : 2 channels
Sampling rate : 22.05 KHz
Compression mode : Lossy
Delay relative to video : 2s 500ms
Stream size : 31.8 MiB (4%)
Title : English Audio -=KSRR=-
Language : English

Audio #2
ID : 2
Format : MPEG Audio
Format version : Version 1
Format profile : Layer 3
Mode : Joint stereo
Mode extension : MS Stereo
Muxing mode : Header stripping
Codec ID : A_MPEG/L3
Codec ID/Hint : MP3
Duration : 1h 26mn
Bit rate mode : Constant
Bit rate : 96.0 Kbps
Channel(s) : 2 channels
Sampling rate : 32.0 KHz
Compression mode : Lossy
Stream size : 59.1 MiB (7%)
Title : Hindi Audio -=KSRR=-
Writing library : LAME3.98r
Encoding settings : -m j -V 4 -q 2 -lowpass 15.1 -b 96
Language : Hindi

Screen Shots
 
http://www.postimg.com/54000/photo-53110.jpg 
http://www.postimg.com/54000/photo-53111.jpg 
http://www.postimg.com/54000/photo-53112.jpg


Shrek Final Chapter

General
Format : Matroska
Format version : Version 2
File size : 830 MiB
Duration : 1h 33mn
Overall bit rate : 1 246 Kbps
Encoded date : UTC 2011-11-27 02:57:21
Writing application : mkvmerge v4.3.0 ('Escape from the Island') built on Sep 5 2010 10:30:51
Writing library : libebml v1.0.0 + libmatroska v1.0.0

Video
ID : 1
Format : AVC
Format/Info : Advanced Video Codec
Format profile : Main@L3.1
Format settings, CABAC : Yes
Format settings, ReFrames : 4 frames
Muxing mode : Header stripping
Codec ID : V_MPEG4/ISO/AVC
Duration : 1h 33mn
Bit rate : 1 100 Kbps
Width : 1 280 pixels
Height : 544 pixels
Display aspect ratio : 2.35:1
Frame rate : 23.976 fps
Color space : YUV
Chroma subsampling : 4:2:0
Bit depth : 8 bits
Scan type : Progressive
Bits/(Pixel*Frame) : 0.066
Stream size : 718 MiB (86%)
Title : Shrek Forever After 720p Brrip Dual Audio{Hindi English}~JAGJIT639~KHARAY-=KSRR=-


Audio #1
ID : 2
Format : MPEG Audio
Format version : Version 1
Format profile : Layer 3
Mode : Joint stereo
Mode extension : MS Stereo
Muxing mode : Header stripping
Codec ID : A_MPEG/L3
Codec ID/Hint : MP3
Duration : 1h 33mn
Bit rate mode : Constant
Bit rate : 96.0 Kbps
Channel(s) : 2 channels
Sampling rate : 32.0 KHz
Compression mode : Lossy
Stream size : 64.0 MiB (8%)
Title : Hindi Audio -=KSRR=-
Writing library : LAME3.98r
Encoding settings : -m j -V 4 -q 2 -lowpass 15.1 -b 96
Language : Hindi

Audio #2
ID : 3
Format : MPEG Audio
Format version : Version 2
Format profile : Layer 3
Mode : Joint stereo
Mode extension : MS Stereo
Muxing mode : Header stripping
Codec ID : A_MPEG/L3
Codec ID/Hint : MP3
Duration : 1h 33mn
Bit rate mode : Constant
Bit rate : 48.0 Kbps
Channel(s) : 2 channels
Sampling rate : 22.05 KHz
Compression mode : Lossy
Stream size : 32.0 MiB (4%)
Title : Englsih Audio -=KSRR=-
Writing library : LAME3.98.4UUUUUULAME
Language : English

Screen Shots
 
http://www.postimg.com/54000/photo-53115.jpg 
http://www.postimg.com/54000/photo-53116.jpg 
http://www.postimg.com/54000/photo-53117.jpg
